<?xml version="1.0" encoding="UTF-8"?>
<svg xmlns="http://www.w3.org/2000/svg" viewBox="0 0 24 24" width="24" height="24">
  <defs>
    <linearGradient id="llmenvGrad" x1="0%" y1="0%" x2="100%" y2="100%">
      <stop offset="0%" style="stop-color:#00D9FF;stop-opacity:1" />
      <stop offset="100%" style="stop-color:#7C3AED;stop-opacity:1" />
    </linearGradient>
  </defs>
  <!-- Background rounded rectangle -->
  <rect x="2" y="2" width="20" height="20" rx="4" ry="4" fill="url(#llmenvGrad)" opacity="0.15"/>
  <!-- Brain/AI symbol -->
  <path d="M12 4C8.7 4 6 6.7 6 10c0 2.2 1.2 4.1 3 5.1V17c0 .6.4 1 1 1h4c.6 0 1-.4 1-1v-1.9c1.8-1 3-2.9 3-5.1 0-3.3-2.7-6-6-6z" 
        fill="none" stroke="url(#llmenvGrad)" stroke-width="1.5" stroke-linecap="round" stroke-linejoin="round"/>
  <!-- Neural connections -->
  <circle cx="10" cy="10" r="1" fill="url(#llmenvGrad)"/>
  <circle cx="14" cy="10" r="1" fill="url(#llmenvGrad)"/>
  <circle cx="12" cy="8" r="1" fill="url(#llmenvGrad)"/>
  <line x1="10" y1="10" x2="12" y2="8" stroke="url(#llmenvGrad)" stroke-width="0.8"/>
  <line x1="14" y1="10" x2="12" y2="8" stroke="url(#llmenvGrad)" stroke-width="0.8"/>
  <line x1="10" y1="10" x2="14" y2="10" stroke="url(#llmenvGrad)" stroke-width="0.8"/>
  <!-- Bottom connector pins -->
  <line x1="10" y1="18" x2="10" y2="20" stroke="url(#llmenvGrad)" stroke-width="1.5" stroke-linecap="round"/>
  <line x1="14" y1="18" x2="14" y2="20" stroke="url(#llmenvGrad)" stroke-width="1.5" stroke-linecap="round"/>
</svg>
